<svg width="22" height="22" viewBox="0 0 22 22" fill="none" xmlns="http://www.w3.org/2000/svg">
<path d="M21.6289 6.61031C21.6169 5.71055 21.4484 4.81973 21.1311 3.9777C20.8559 3.26746 20.4356 2.62243 19.897 2.08383C19.3584 1.54523 18.7133 1.1249 18.0031 0.849701C17.1719 0.537681 16.2938 0.368966 15.4061 0.35074C14.2633 0.299656 13.9009 0.2854 10.9998 0.2854C8.09873 0.2854 7.72688 0.2854 6.59234 0.35074C5.7051 0.3691 4.82739 0.537812 3.99656 0.849701C3.28621 1.12471 2.64108 1.54497 2.10246 2.0836C1.56383 2.62222 1.14357 3.26735 0.86856 3.9777C0.555915 4.80827 0.387567 5.68618 0.370788 6.57348C0.319704 7.71753 0.30426 8.07987 0.30426 10.981C0.30426 13.8821 0.30426 14.2527 0.370788 15.3884C0.388608 16.2771 0.556116 17.1538 0.86856 17.9866C1.14403 18.6967 1.5646 19.3416 2.10341 19.88C2.64222 20.4184 3.2874 20.8385 3.99775 21.1134C4.8263 21.438 5.70416 21.6188 6.59353 21.648C7.73758 21.6991 8.09992 21.7145 11.001 21.7145C13.9021 21.7145 14.274 21.7145 15.4085 21.648C16.2961 21.6305 17.1743 21.4622 18.0055 21.1502C18.7155 20.8747 19.3604 20.4543 19.8989 19.9157C20.4375 19.3772 20.8579 18.7323 21.1335 18.0222C21.4459 17.1906 21.6134 16.3139 21.6312 15.4241C21.6823 14.2812 21.6978 13.9189 21.6978 11.0166C21.6954 8.11551 21.6954 7.74723 21.6289 6.61031ZM10.9927 16.4671C7.95854 16.4671 5.50057 14.0092 5.50057 10.975C5.50057 7.94087 7.95854 5.4829 10.9927 5.4829C12.4493 5.4829 13.8462 6.06153 14.8762 7.09151C15.9062 8.12148 16.4848 9.51842 16.4848 10.975C16.4848 12.4316 15.9062 13.8286 14.8762 14.8585C13.8462 15.8885 12.4493 16.4671 10.9927 16.4671ZM16.7034 6.56042C16.5352 6.56057 16.3686 6.52755 16.2131 6.46325C16.0577 6.39895 15.9165 6.30462 15.7975 6.18567C15.6785 6.06672 15.5842 5.92547 15.5199 5.77003C15.4556 5.61458 15.4226 5.44798 15.4227 5.27975C15.4227 5.11165 15.4559 4.9452 15.5202 4.78989C15.5845 4.63459 15.6788 4.49347 15.7977 4.37461C15.9165 4.25574 16.0577 4.16145 16.213 4.09712C16.3683 4.03279 16.5347 3.99968 16.7028 3.99968C16.8709 3.99968 17.0374 4.03279 17.1927 4.09712C17.348 4.16145 17.4891 4.25574 17.608 4.37461C17.7268 4.49347 17.8211 4.63459 17.8854 4.78989C17.9498 4.9452 17.9829 5.11165 17.9829 5.27975C17.9829 5.9878 17.4103 6.56042 16.7034 6.56042Z" fill="#999EAD"/>
<path d="M10.9927 14.5426C12.963 14.5426 14.5603 12.9453 14.5603 10.975C14.5603 9.00471 12.963 7.40746 10.9927 7.40746C9.02239 7.40746 7.42513 9.00471 7.42513 10.975C7.42513 12.9453 9.02239 14.5426 10.9927 14.5426Z" fill="#999EAD"/>
</svg>
