<svg width="97" height="24" viewBox="0 0 97 24" fill="none" xmlns="http://www.w3.org/2000/svg">
<path d="M21 16V7.99999C20.9996 7.64927 20.9071 7.3048 20.7315 7.00116C20.556 6.69751 20.3037 6.44536 20 6.26999L13 2.26999C12.696 2.09446 12.3511 2.00204 12 2.00204C11.6489 2.00204 11.304 2.09446 11 2.26999L4 6.26999C3.69626 6.44536 3.44398 6.69751 3.26846 7.00116C3.09294 7.3048 3.00036 7.64927 3 7.99999V16C3.00036 16.3507 3.09294 16.6952 3.26846 16.9988C3.44398 17.3025 3.69626 17.5546 4 17.73L11 21.73C11.304 21.9055 11.6489 21.9979 12 21.9979C12.3511 21.9979 12.696 21.9055 13 21.73L20 17.73C20.3037 17.5546 20.556 17.3025 20.7315 16.9988C20.9071 16.6952 20.9996 16.3507 21 16Z" stroke="#fff" stroke-width="2" stroke-linecap="round" stroke-linejoin="round"/>
<path d="M34.1172 18V16.0156L34.4531 15.9922C34.875 15.9557 35.2161 15.7943 35.4766 15.5078C35.737 15.2214 35.9323 14.7604 36.0625 14.125C36.1927 13.4844 36.2786 12.625 36.3203 11.5469L36.5156 6.35938H44.4062V18H42.0156V8.32812H38.7969L38.6094 12.3906C38.5521 13.6927 38.3984 14.7578 38.1484 15.5859C37.9036 16.4089 37.5104 17.0182 36.9688 17.4141C36.4271 17.8047 35.6901 18 34.7578 18H34.1172ZM49.7969 18.1719C48.9167 18.1719 48.1536 17.9844 47.5078 17.6094C46.8672 17.2292 46.3724 16.7031 46.0234 16.0312C45.6797 15.3542 45.5078 14.5677 45.5078 13.6719C45.5078 12.7656 45.6797 11.9766 46.0234 11.3047C46.3724 10.6276 46.8672 10.1016 47.5078 9.72656C48.1536 9.34635 48.9167 9.15625 49.7969 9.15625C50.6823 9.15625 51.4453 9.34635 52.0859 9.72656C52.7318 10.1016 53.2266 10.6276 53.5703 11.3047C53.9193 11.9766 54.0938 12.7656 54.0938 13.6719C54.0938 14.5677 53.9193 15.3542 53.5703 16.0312C53.2266 16.7031 52.7318 17.2292 52.0859 17.6094C51.4453 17.9844 50.6823 18.1719 49.7969 18.1719ZM49.8125 16.2812C50.2135 16.2812 50.5495 16.1693 50.8203 15.9453C51.0911 15.7161 51.2943 15.4036 51.4297 15.0078C51.5703 14.612 51.6406 14.1615 51.6406 13.6562C51.6406 13.1458 51.5703 12.6953 51.4297 12.3047C51.2943 11.9141 51.0911 11.6068 50.8203 11.3828C50.5495 11.1589 50.2135 11.0469 49.8125 11.0469C49.4062 11.0469 49.0651 11.1589 48.7891 11.3828C48.5182 11.6068 48.3125 11.9141 48.1719 12.3047C48.0365 12.6953 47.9688 13.1458 47.9688 13.6562C47.9688 14.1615 48.0365 14.612 48.1719 15.0078C48.3125 15.4036 48.5182 15.7161 48.7891 15.9453C49.0651 16.1693 49.4062 16.2812 49.8125 16.2812ZM61.125 9.26562V11.1719H57.5V18H55.1641V9.26562H61.125ZM65.7031 18.1719C64.8229 18.1719 64.0599 17.9844 63.4141 17.6094C62.7734 17.2292 62.2786 16.7031 61.9297 16.0312C61.5859 15.3542 61.4141 14.5677 61.4141 13.6719C61.4141 12.7656 61.5859 11.9766 61.9297 11.3047C62.2786 10.6276 62.7734 10.1016 63.4141 9.72656C64.0599 9.34635 64.8229 9.15625 65.7031 9.15625C66.5885 9.15625 67.3516 9.34635 67.9922 9.72656C68.638 10.1016 69.1328 10.6276 69.4766 11.3047C69.8255 11.9766 70 12.7656 70 13.6719C70 14.5677 69.8255 15.3542 69.4766 16.0312C69.1328 16.7031 68.638 17.2292 67.9922 17.6094C67.3516 17.9844 66.5885 18.1719 65.7031 18.1719ZM65.7188 16.2812C66.1198 16.2812 66.4557 16.1693 66.7266 15.9453C66.9974 15.7161 67.2005 15.4036 67.3359 15.0078C67.4766 14.612 67.5469 14.1615 67.5469 13.6562C67.5469 13.1458 67.4766 12.6953 67.3359 12.3047C67.2005 11.9141 66.9974 11.6068 66.7266 11.3828C66.4557 11.1589 66.1198 11.0469 65.7188 11.0469C65.3125 11.0469 64.9714 11.1589 64.6953 11.3828C64.4245 11.6068 64.2188 11.9141 64.0781 12.3047C63.9427 12.6953 63.875 13.1458 63.875 13.6562C63.875 14.1615 63.9427 14.612 64.0781 15.0078C64.2188 15.4036 64.4245 15.7161 64.6953 15.9453C64.9714 16.1693 65.3125 16.2812 65.7188 16.2812ZM70.2188 11.1719V9.26562H78.1172V11.1719H75.3125V18H73.0078V11.1719H70.2188ZM81.3906 14.8047L84.5312 9.26562H86.9219V18H84.6172V12.4531L81.4844 18H79.0859V9.26562H81.3906V14.8047ZM88.3516 18V9.26562H95.9766V18H93.6719V11.1719H90.625V18H88.3516Z" fill="#fff"/>
</svg>
