<svg width="24" height="24" viewBox="0 0 24 24" fill="none" xmlns="http://www.w3.org/2000/svg">
<path d="M11.9999 0C5.37594 0 -6.10352e-05 5.376 -6.10352e-05 12C-6.10352e-05 18.624 5.37594 24 11.9999 24C18.6239 24 23.9999 18.624 23.9999 12C23.9999 5.376 18.6239 0 11.9999 0ZM17.5679 8.16C17.3879 10.056 16.6079 14.664 16.2119 16.788C16.0439 17.688 15.7079 17.988 15.3959 18.024C14.6999 18.084 14.1719 17.568 13.4999 17.124C12.4439 16.428 11.8439 15.996 10.8239 15.324C9.63594 14.544 10.4039 14.112 11.0879 13.416C11.2679 13.236 14.3399 10.44 14.3999 10.188C14.4083 10.1498 14.4072 10.1102 14.3967 10.0726C14.3863 10.0349 14.3668 10.0004 14.3399 9.972C14.2679 9.912 14.1719 9.936 14.0879 9.948C13.9799 9.972 12.2999 11.088 9.02394 13.296C8.54394 13.62 8.11194 13.788 7.72794 13.776C7.29594 13.764 6.47994 13.536 5.86794 13.332C5.11194 13.092 4.52394 12.96 4.57194 12.54C4.59594 12.324 4.89594 12.108 5.45994 11.88C8.96394 10.356 11.2919 9.348 12.4559 8.868C15.7919 7.476 16.4759 7.236 16.9319 7.236C17.0279 7.236 17.2559 7.26 17.3999 7.38C17.5199 7.476 17.5559 7.608 17.5679 7.704C17.5559 7.776 17.5799 7.992 17.5679 8.16Z" fill="#999EAD"/>
</svg>
