<svg width="24" height="24" viewBox="0 0 24 24" fill="none" xmlns="http://www.w3.org/2000/svg">
<path d="M11.9999 0C5.37244 0 -6.10352e-05 5.3725 -6.10352e-05 12C-6.10352e-05 18.6275 5.37244 24 11.9999 24C18.6274 24 23.9999 18.6275 23.9999 12C23.9999 5.3725 18.6274 0 11.9999 0ZM16.6149 13.5388C16.6149 13.5388 17.6762 14.5863 17.9374 15.0725C17.9449 15.0825 17.9487 15.0925 17.9512 15.0975C18.0574 15.2762 18.0824 15.415 18.0299 15.5188C17.9424 15.6912 17.6424 15.7763 17.5399 15.7838H15.6649C15.5349 15.7838 15.2624 15.75 14.9324 15.5225C14.6787 15.345 14.4287 15.0538 14.1849 14.77C13.8212 14.3475 13.5062 13.9825 13.1887 13.9825C13.1484 13.9824 13.1083 13.9888 13.0699 14.0013C12.8299 14.0788 12.5224 14.4213 12.5224 15.3337C12.5224 15.6188 12.2974 15.7825 12.1387 15.7825H11.2799C10.9874 15.7825 9.46369 15.68 8.11369 14.2563C6.46119 12.5125 4.97369 9.015 4.96119 8.9825C4.86744 8.75625 5.06119 8.635 5.27244 8.635H7.16619C7.41869 8.635 7.50119 8.78875 7.55869 8.925C7.62619 9.08375 7.87369 9.715 8.27994 10.425C8.93869 11.5825 9.34244 12.0525 9.66619 12.0525C9.72689 12.0518 9.78652 12.0363 9.83994 12.0075C10.2624 11.7725 10.1837 10.2662 10.1649 9.95375C10.1649 9.895 10.1637 9.28 9.94744 8.985C9.79244 8.77125 9.52869 8.69 9.36869 8.66C9.43345 8.57064 9.51877 8.49818 9.61744 8.44875C9.90744 8.30375 10.4299 8.2825 10.9487 8.2825H11.2374C11.7999 8.29 11.9449 8.32625 12.1487 8.3775C12.5612 8.47625 12.5699 8.7425 12.5337 9.65375C12.5224 9.9125 12.5112 10.205 12.5112 10.55C12.5112 10.625 12.5074 10.705 12.5074 10.79C12.4949 11.2537 12.4799 11.78 12.8074 11.9963C12.8502 12.023 12.8995 12.0373 12.9499 12.0375C13.0637 12.0375 13.4062 12.0375 14.3337 10.4463C14.6197 9.93407 14.8683 9.40185 15.0774 8.85375C15.0962 8.82125 15.1512 8.72125 15.2162 8.6825C15.2642 8.65804 15.3173 8.64561 15.3712 8.64625H17.5974C17.8399 8.64625 18.0062 8.6825 18.0374 8.77625C18.0924 8.925 18.0274 9.37875 17.0112 10.755L16.5574 11.3538C15.6362 12.5613 15.6362 12.6225 16.6149 13.5388Z" fill="#999EAD"/>
</svg>
